# xmcd
#
# Track frame offsets: 
#        183
#        23683
#        38843
#        58770
#        82083
#        104173
#        123458
#        141108
#        158268
#        173773
#        192248
#
# Disc length: 2761 seconds
#
# Revision: 3
# Processed by: cddbd v1.5.1PL0 Copyright (c) Steve Scherf et al.
# Submitted via: ExactAudioCopy v0.95a5
#
DISCID=8f0ac70b
DTITLE=Ringsgwandl - Trulla! Trulla!
DYEAR=1989
DGENRE=
TTITLE0=Wuide unterwegs
TTITLE1=Heavy Metal Landler
TTITLE2=Straßenköter
TTITLE3=Café
TTITLE4=Nix mitnehma
TTITLE5=Der Placido Domingo
TTITLE6=Disco
TTITLE7=Gaggerlfidel
TTITLE8=Mir baun
TTITLE9=Aids net kriagn
TTITLE10=Luxusschnoin
EXTD=
EXTT0=
EXTT1=
EXTT2=
EXTT3=
EXTT4=
EXTT5=
EXTT6=
EXTT7=
EXTT8=
EXTT9=
EXTT10=
PLAYORDER=
